<svg xmlns="http://www.w3.org/2000/svg" viewBox="0 0 1774 887" width="1774" height="887" role="img" aria-label="tikin-logo">
  <rect width="1774" height="887" fill="#000000"/>
  <path d="M 245 275 L 245 339 L 328 339 L 334 341 L 334 542 L 409 542 L 409 341 L 502 339 L 502 276 Z" fill="#FFFFFF"/> <path d="M 583 275 L 583 542 L 657 542 L 657 275 Z" fill="#FFFFFF"/> <path d="M 749 275 L 746 277 L 746 482 L 751 482 L 756 473 L 763 472 L 779 473 L 782 478 L 787 480 L 788 475 L 784 469 L 784 438 L 787 433 L 793 428 L 808 428 L 811 431 L 821 430 L 821 401 L 824 397 L 821 390 L 821 276 Z" fill="#FFFFFF"/> <path d="M 746 500 L 746 513 L 752 513 L 757 520 L 784 520 L 784 502 L 778 509 L 755 508 L 751 502 Z" fill="#FFFFFF"/> <path d="M 949 275 L 837 394 L 836 397 L 842 403 L 854 391 L 894 392 L 899 396 L 900 405 L 898 437 L 918 437 L 926 440 L 932 446 L 933 481 L 925 490 L 923 490 L 931 498 L 933 510 L 962 542 L 1053 542 L 926 402 L 928 398 L 1041 280 L 1041 275 Z" fill="#FFFFFF"/> <path d="M 1114 388 L 1114 542 L 1189 542 L 1189 388 Z" fill="#FFFFFF"/> <path d="M 1269 276 L 1269 542 L 1340 542 L 1340 383 L 1346 389 L 1457 542 L 1527 542 L 1527 276 L 1457 275 L 1456 431 L 1450 425 L 1344 277 L 1341 275 Z" fill="#FFFFFF"/> <path d="M 676 592 L 676 615 L 698 615 L 699 592 Z" fill="#FF7A00"/> <path d="M 694 510 L 694 529 L 713 529 L 713 510 Z" fill="#FF7A00"/> <path d="M 775 531 L 771 533 L 761 534 L 760 543 L 741 544 L 741 564 L 770 564 L 770 544 L 775 542 Z" fill="#FF7A00"/> <path d="M 756 482 L 756 496 L 780 497 L 781 481 Z" fill="#FF7A00"/> <path d="M 800 444 L 801 473 L 833 473 L 833 444 Z" fill="#FF7A00"/> <path d="M 829 497 L 826 497 L 823 492 L 813 492 L 810 497 L 802 498 L 802 521 L 824 521 L 824 515 L 827 512 L 830 512 Z" fill="#FF7A00"/> <path d="M 820 573 L 818 575 L 818 614 L 860 615 L 860 573 Z" fill="#FF7A00"/> <path d="M 846 477 L 846 485 L 850 489 L 857 489 L 859 487 L 859 478 L 855 478 L 854 475 L 849 475 Z" fill="#FF7A00"/> <path d="M 851 407 L 849 409 L 849 440 L 874 441 L 882 443 L 882 407 Z" fill="#FF7A00"/> <path d="M 869 499 L 870 543 L 914 542 L 913 499 Z" fill="#FF7A00"/> <path d="M 886 444 L 884 450 L 891 451 L 892 458 L 894 460 L 893 479 L 916 480 L 917 452 L 892 452 L 890 446 L 891 444 Z" fill="#FF7A00"/> <path d="M 1114 275 L 1113 356 L 1189 357 L 1190 276 Z" fill="#FF7A00"/>
</svg>