<svg xmlns="http://www.w3.org/2000/svg" viewBox="0 0 1254 1254" width="1254" height="1254" role="img" aria-label="tikin-icon">
  <rect width="1254" height="1254" fill="#000000"/>
  <path d="M 533 287 L 397 288 L 397 639 L 465 639 L 465 568 L 474 560 L 534 559 Z" fill="#FFFFFF"/> <path d="M 781 287 L 582 494 L 659 494 L 670 505 L 670 570 L 725 571 L 733 579 L 733 658 L 725 666 L 688 666 L 687 682 L 791 791 L 970 792 L 725 536 L 725 533 L 835 420 L 960 287 Z" fill="#FFFFFF"/> <path d="M 297 854 L 296 897 L 338 898 L 340 896 L 340 856 L 338 854 Z" fill="#FF7A00"/> <path d="M 351 735 L 352 757 L 374 756 L 373 734 Z" fill="#FF7A00"/> <path d="M 406 766 L 404 778 L 405 816 L 454 817 L 456 815 L 456 767 Z" fill="#FF7A00"/> <path d="M 409 663 L 410 705 L 454 705 L 455 663 L 453 661 L 411 661 Z" fill="#FF7A00"/> <path d="M 444 928 L 443 953 L 466 954 L 467 929 Z" fill="#FF7A00"/> <path d="M 490 585 L 487 588 L 488 647 L 548 647 L 549 587 L 547 585 Z" fill="#FF7A00"/> <path d="M 501 703 L 499 705 L 499 744 L 501 746 L 541 746 L 542 704 Z" fill="#FF7A00"/> <path d="M 519 857 L 518 900 L 520 902 L 562 901 L 563 858 Z" fill="#FF7A00"/> <path d="M 575 517 L 573 520 L 574 587 L 642 588 L 644 576 L 644 519 L 642 517 Z" fill="#FF7A00"/> <path d="M 576 648 L 574 650 L 574 682 L 606 683 L 608 681 L 608 650 Z" fill="#FF7A00"/> <path d="M 579 783 L 578 816 L 610 817 L 612 815 L 612 784 Z" fill="#FF7A00"/> <path d="M 625 699 L 624 759 L 683 760 L 685 758 L 685 700 Z" fill="#FF7A00"/> <path d="M 671 595 L 670 642 L 717 643 L 718 597 L 716 595 Z" fill="#FF7A00"/>
</svg>